<svg xmlns="http://www.w3.org/2000/svg" viewBox="0 0 100 100">
    <rect rx="10" ry="10" height="100" width="100" fill="#298F29"/>
    <g stroke-width=".1" fill="#ececec">
        <path d="M37.456 24.604c-4.484 3.122-12.526 8.677-17.863 12.38S9.536 43.993 9.101 44.32c-1.724 1.398-1.706 2.305.091 5.41 1.089 1.906 1.362 2.232 2.07 2.595 1.397.727 1.616.618 7.46-3.412l5.23-3.63h3.467c4.266 0 4.7.145 4.7 1.652 0 .327-.18.707-.453.98l-.436.455H19.776v4.719h14.54l.436.454c.454.436.581 1.18.345 1.815-.308.763-.78.817-8.242.817h-7.08v4.518l5.7.055 5.7.054.473.436c.617.581.653 1.597.055 2.16-.4.381-.563.4-6.118.435l-5.718.054-.054 3.85-.036 3.866H72.42l-.036-3.866-.055-3.849-7.243-.054c-7.152-.036-7.261-.054-7.679-.435-.6-.562-.562-1.579.054-2.16l.473-.436 7.243-.054 7.243-.055v-4.52h-5.537c-6.608 0-6.808-.054-6.808-1.652 0-.326.181-.708.454-.98l.436-.455H72.4l.055-1.833.054-1.816 2.832 2.07c1.56 1.162 3.032 2.196 3.249 2.305.254.128.817.182 1.398.146 1.216-.11 1.543-.4 2.832-2.578 1.398-2.342 1.579-2.741 1.579-3.413 0-1.106-.526-1.724-3.177-3.666l-2.542-1.87-.054-7.098-.036-7.116H66.265l-.055 2.524-.055 2.523-9.784-7.152c-7.225-5.282-9.912-7.152-10.275-7.152-.344-.002-2.812 1.614-8.64 5.644zm2.051 13.488c.363.435.435.653.345 1.18-.2 1.234-.363 1.288-4.974 1.288h-4.103l1.362-.943a64.832 64.832 0 0 0 2.16-1.543l.817-.6 1.96.036c1.925.055 1.98.073 2.433.582zm18.716.871l2.051 1.507-5.845.054c-5.809.036-5.863.036-6.281-.363a1.317 1.317 0 0 1-.417-.98c0-1.544.417-1.689 4.901-1.707h3.54zm10.747 7.86l2.07 1.544H54.793l-.436-.455c-.308-.29-.454-.635-.454-1.088s.145-.799.454-1.09l.436-.453h6.045l6.045.018zM53.903 59.259v9.259h-15.61V50h15.61z"/>
        <path d="M41.995 59.695c-1.053.89-.364 2.65 1.034 2.65 1.307 0 1.979-1.906.962-2.705-.635-.509-1.38-.49-1.996.055zM72.891 19.412l-.472.435v2.905c0 2.796.018 2.923.435 3.394.327.382.58.509 1.108.509.526 0 .78-.127 1.107-.509.417-.472.435-.599.435-3.304v-2.83l-.526-.527c-.671-.672-1.415-.69-2.087-.073zM68.462 20.72c-.435.163-.763 1.125-.763 2.232 0 .999.055 1.18.527 1.652.69.672 1.488.708 2.105.073.4-.38.455-.6.455-1.869 0-1.253-.054-1.47-.418-1.815-.4-.382-1.326-.51-1.906-.273z"/>
    </g>
</svg>
