<svg xmlns="http://www.w3.org/2000/svg" version="1.1" viewBox="0 0 76.574 52.642">
	<path d="m29.63 5.644c-4.484 3.122-12.526 8.677-17.862 12.38s-10.058 7.008-10.493 7.336c-1.724 1.398-1.706 2.305.091 5.41 1.09 1.906 1.362 2.232 2.07 2.595 1.398.727 1.616.618 7.46-3.412l5.23-3.63h3.467c4.266 0 4.701.144 4.701 1.651 0 .328-.181.708-.454.981l-.435.454h-11.455v4.72h14.54l.435.454c.454.435.581 1.18.345 1.815-.308.763-.78.817-8.241.817h-7.08v4.518l5.7.055 5.7.054.472.435c.617.582.653 1.597.055 2.16-.4.382-.563.4-6.117.436l-5.718.054-.054 3.849-.036 3.866 52.642.001-.036-3.866-.055-3.849-7.243-.054c-7.152-.036-7.261-.054-7.678-.435-.6-.563-.563-1.58.054-2.16l.472-.436 7.243-.054 7.243-.055v-4.52h-5.537c-6.607 0-6.808-.054-6.808-1.652 0-.327.182-.708.455-.981l.435-.454h11.436l.055-1.834.054-1.815 2.832 2.07c1.561 1.161 3.032 2.196 3.25 2.305.253.127.816.181 1.397.145 1.216-.109 1.543-.399 2.832-2.578 1.398-2.341 1.58-2.74 1.58-3.412 0-1.107-.527-1.724-3.178-3.666l-2.542-1.87-.054-7.099-.036-7.116h-12.324l-.054 2.524-.055 2.524-9.785-7.152c-7.226-5.284-9.913-7.153-10.276-7.153-.343-.002-2.812 1.613-8.64 5.644zm2.051 13.487c.364.436.436.654.346 1.18-.2 1.235-.364 1.289-4.975 1.289h-4.102l1.362-.944a64.832 64.832 0 0 0 2.16 -1.543l.817-.6 1.96.037c1.925.055 1.98.073 2.433.581zm18.716.872l2.052 1.507-5.845.054c-5.81.036-5.863.036-6.282-.363a1.317 1.317 0 0 1 -.417 -.98c0-1.544.417-1.69 4.901-1.707h3.54zm10.748 7.86l2.07 1.543h-16.249l-.435-.454c-.309-.29-.455-.635-.455-1.089s.145-.798.455-1.088l.435-.455h6.045l6.045.018zm-15.068 12.435v9.258h-15.61v-18.516h15.61z"/>
	<path d="m34.169 40.734c-1.053.89-.363 2.651 1.035 2.651 1.307 0 1.978-1.906.961-2.705-.635-.51-1.38-.491-1.996.054zm30.896-40.283l-.472.436v2.905c0 2.796.018 2.923.435 3.394.328.381.58.508 1.108.508.526 0 .78-.127 1.107-.508.417-.472.435-.6.435-3.304v-2.832l-.526-.527c-.67-.671-1.415-.689-2.087-.073zm-4.429 1.309c-.435.162-.762 1.125-.762 2.232 0 .999.055 1.18.526 1.652.69.671 1.488.707 2.106.073.399-.381.454-.6.454-1.87 0-1.252-.054-1.47-.417-1.815-.4-.382-1.326-.509-1.907-.273z"/>
</svg>
