<?xml version="1.0" standalone="no"?>
<!DOCTYPE svg PUBLIC "-//W3C//DTD SVG 20010904//EN"
 "http://www.w3.org/TR/2001/REC-SVG-20010904/DTD/svg10.dtd">
<svg version="1.0" xmlns="http://www.w3.org/2000/svg"
 width="700.000000pt" height="700.000000pt" viewBox="0 0 700.000000 700.000000"
 preserveAspectRatio="xMidYMid meet">
<metadata>
Created by potrace 1.11, written by Peter Selinger 2001-2013
</metadata>
<g transform="translate(0.000000,700.000000) scale(0.100000,-0.100000)"
fill="#000000" stroke="none">
<path d="M555 6984 c-38 -8 -110 -34 -160 -59 -150 -73 -247 -170 -320 -320
-81 -165 -75 100 -75 -3105 0 -3205 -6 -2940 75 -3105 73 -150 170 -247 320
-320 165 -81 -100 -75 3105 -75 3205 0 2940 -6 3105 75 150 73 247 170 320
320 81 165 75 -100 75 3105 0 3205 6 2940 -75 3105 -73 150 -170 247 -320 320
-166 81 101 75 -3112 74 -2455 -1 -2878 -3 -2938 -15z m2704 -1329 c58 -30
370 -252 1014 -723 192 -140 350 -253 352 -251 2 2 7 79 11 172 l7 167 428 0
429 0 0 -297 c0 -164 3 -388 7 -498 l6 -200 129 -94 c230 -170 278 -226 263
-311 -7 -38 -115 -236 -170 -312 -50 -68 -75 -82 -154 -82 -74 -1 -66 -6 -364
211 -70 51 -132 93 -137 93 -5 0 -11 -54 -12 -122 l-3 -123 -402 -3 -401 -2
-26 -31 c-20 -23 -26 -42 -26 -78 0 -95 24 -100 493 -101 l367 0 0 -159 0
-160 -502 -3 c-277 -2 -511 -7 -520 -12 -27 -12 -58 -70 -58 -105 0 -22 9 -41
28 -60 27 -27 30 -28 187 -34 88 -4 316 -7 506 -7 l346 0 6 -137 c4 -75 7
-196 7 -270 l0 -133 -1840 0 -1840 0 0 269 0 268 393 5 c272 4 400 9 415 17
32 17 55 67 48 105 -4 18 -20 46 -37 62 l-30 29 -395 3 -394 3 0 159 0 159
503 3 c587 4 567 0 567 100 0 36 -6 54 -26 77 l-26 31 -509 0 -509 0 0 165 0
165 399 0 400 0 25 33 c32 42 42 88 27 126 -22 51 -44 55 -316 59 l-250 4 -40
-29 c-101 -73 -538 -372 -610 -417 -181 -113 -252 -89 -373 121 -110 192 -125
259 -73 330 30 41 269 211 1501 1065 824 571 1117 768 1142 768 5 0 22 -7 37
-15z m1954 4 c12 -6 32 -21 45 -32 21 -20 22 -26 22 -213 0 -106 -4 -204 -10
-218 -13 -34 -52 -58 -96 -58 -28 0 -44 8 -68 31 l-31 31 -3 208 -2 207 36 28
c40 29 72 34 107 16z m-318 -113 c47 -20 55 -42 55 -145 0 -86 -2 -92 -29
-123 -22 -25 -37 -32 -65 -32 -40 0 -84 27 -104 65 -18 33 -9 171 13 205 28
43 73 53 130 30z"/>
<path d="M2308 4271 l-147 -106 227 -3 c283 -4 347 2 378 33 35 35 33 95 -5
137 -26 29 -36 33 -107 39 -44 4 -106 7 -139 7 l-60 0 -147 -107z"/>
<path d="M3488 4370 c-99 -8 -133 -25 -143 -70 -14 -65 14 -117 72 -131 43
-10 558 -10 700 0 l93 6 -140 103 -141 102 -177 -1 c-97 -1 -216 -5 -264 -9z"/>
<path d="M3812 3808 c-49 -53 -50 -114 -1 -166 l30 -32 565 0 c310 0 564 2
564 4 0 3 -65 52 -144 110 l-144 106 -424 0 -425 0 -21 -22z"/>
<path d="M2680 2850 l0 -650 545 0 545 0 0 650 0 650 -545 0 -545 0 0 -650z
m380 -15 c51 -26 65 -86 35 -145 -19 -37 -43 -50 -90 -50 -54 0 -95 44 -95
102 1 49 14 71 56 93 37 19 57 19 94 0z"/>
</g>
</svg>
